<mxfile host="app.diagrams.net" modified="2023-04-25T11:16:09.163Z" agent="Mozilla/5.0 (Macintosh; Intel Mac OS X 10_15_7) AppleWebKit/537.36 (KHTML, like Gecko) Chrome/112.0.0.0 Safari/537.36" etag="PJzGsCUQqaJKiaCIubMP" version="21.2.1" type="device">
  <diagram name="PÃ¡gina-1" id="PrEuQZuvQgcbJ8DZPa5m">
    <mxGraphModel dx="954" dy="565" grid="1" gridSize="10" guides="1" tooltips="1" connect="1" arrows="1" fold="1" page="1" pageScale="1" pageWidth="827" pageHeight="1169" math="0" shadow="0">
      <root>
        <mxCell id="0" />
        <mxCell id="1" parent="0" />
        <mxCell id="SYBkerd49i4jiQnXX40c-1" value="Speech-to-Text" style="sketch=0;html=1;verticalAlign=top;labelPosition=center;verticalLabelPosition=bottom;align=center;spacingTop=-6;fontSize=11;fontStyle=1;fontColor=#999999;shape=image;aspect=fixed;imageAspect=0;image=data:image/svg+xml,PHN2ZyB4bWxucz0iaHR0cDovL3d3dy53My5vcmcvMjAwMC9zdmciIHhtbG5zOnY9Imh0dHBzOi8vdmVjdGEuaW8vbmFubyIgd2lkdGg9IjE4IiBoZWlnaHQ9IjIwIiB2aWV3Qm94PSIwIDAgMTggMjAiPiYjeGE7CTxzdHlsZSB0eXBlPSJ0ZXh0L2NzcyI+JiN4YTsJLnN0MHtmaWxsOiM0Mjg1ZjQ7fSYjeGE7CS5zdDF7ZmlsbDojNjY5ZGY2O30mI3hhOwk8L3N0eWxlPiYjeGE7CTxwYXRoIGNsYXNzPSJzdDAiIGQ9Ik04IDBoMnYyMEg4ek00IDZoMnY4SDR6bTggMGgydjhoLTJ6TTAgM2gydjE0SDB6bTE2IDBoMnYxNGgtMnoiLz4mI3hhOwk8cGF0aCBjbGFzcz0ic3QxIiBkPSJNOCAwaDJ2MTBIOHpNNCA2aDJ2NEg0em04IDBoMnY0aC0yek0wIDNoMnY3SDB6bTE2IDBoMnY3aC0yeiIvPiYjeGE7PC9zdmc+;" vertex="1" parent="1">
          <mxGeometry x="490" y="80" width="38" height="42" as="geometry" />
        </mxCell>
        <mxCell id="SYBkerd49i4jiQnXX40c-2" value="Text-to-Speech" style="sketch=0;html=1;verticalAlign=top;labelPosition=center;verticalLabelPosition=bottom;align=center;spacingTop=-6;fontSize=11;fontStyle=1;fontColor=#999999;shape=image;aspect=fixed;imageAspect=0;image=data:image/svg+xml,PHN2ZyB4bWxucz0iaHR0cDovL3d3dy53My5vcmcvMjAwMC9zdmciIHhtbG5zOnY9Imh0dHBzOi8vdmVjdGEuaW8vbmFubyIgd2lkdGg9IjIwLjAwMDQ2MzQ4NTcxNzc3MyIgaGVpZ2h0PSIxNi42MzE1MTU1MDI5Mjk2ODgiIHZpZXdCb3g9IjAgMC4wMDAyNDE0MDk2NTI1MTcxNzcxNiAyMC4wMDA0NjM0ODU3MTc3NzMgMTYuNjMxNTE1NTAyOTI5Njg4Ij4mI3hhOwk8c3R5bGUgdHlwZT0idGV4dC9jc3MiPiYjeGE7CS5zdDB7ZmlsbDojNjY5ZGY2O30mI3hhOwkuc3Qxe2ZpbGw6IzQyODVmNDt9JiN4YTsJPC9zdHlsZT4mI3hhOwk8cGF0aCBjbGFzcz0ic3QwIiBkPSJNLjAxIDMuMzA2aDYuNjR2MS42N0guMDF6bS0uMDEgMTBoMCA5LjE3di0xLjY3SDB6bTAtNC4xN2g0LjE4SDEwbC0xLjY3LTEuNjZIMi41MSAweiIvPiYjeGE7CTxwYXRoIGNsYXNzPSJzdDEiIGQ9Ik0xMCA1LjM4NmEuNDIuNDIgMCAwIDEgLjQyLS4zNi40MS40MSAwIDAgMSAuNDEuMzZ2OS4xOGEyLjA5IDIuMDkgMCAwIDAgMi42MSAyIDIuMTYgMi4xNiAwIDAgMCAxLjU2LTIuMTFWMi4wNjZhLjQuNCAwIDAgMSAuMTktLjQuNDEuNDEgMCAwIDEgLjQ1IDAgLjQuNCAwIDAgMSAuMTkuNHY5LjE2YTIuMDcgMi4wNyAwIDAgMCAuODEgMS42NCAyIDIgMCAwIDAgMS44LjM3IDIuMTYgMi4xNiAwIDAgMCAxLjU2LTIuMTJ2LTIuOGgtMS42N3YyLjkyYS40LjQgMCAwIDEtLjE5LjQuNDEuNDEgMCAwIDEtLjQ1IDAgLjQuNCAwIDAgMS0uMTktLjR2LTkuMTdhMi4wOSAyLjA5IDAgMCAwLTIuNjEtMiAyLjE2IDIuMTYgMCAwIDAtMS41NiAyLjEzdjEyLjM3YS40LjQgMCAwIDEtLjE5LjQuNDEuNDEgMCAwIDEtLjQ1IDAgLjQuNCAwIDAgMS0uMTktLjR2LTkuMTdhMi4wNyAyLjA3IDAgMCAwLTQuMTEtLjM2IDIuNCAyLjQgMCAwIDAtLjA1LjQ2djJMMTAgOS4xMzZ6Ii8+JiN4YTs8L3N2Zz4=;" vertex="1" parent="1">
          <mxGeometry x="490" y="400" width="42" height="36" as="geometry" />
        </mxCell>
        <mxCell id="SYBkerd49i4jiQnXX40c-13" style="edgeStyle=orthogonalEdgeStyle;rounded=0;orthogonalLoop=1;jettySize=auto;html=1;entryX=0;entryY=0.5;entryDx=0;entryDy=0;" edge="1" parent="1" source="SYBkerd49i4jiQnXX40c-3" target="SYBkerd49i4jiQnXX40c-7">
          <mxGeometry relative="1" as="geometry" />
        </mxCell>
        <mxCell id="SYBkerd49i4jiQnXX40c-3" value="" style="html=1;verticalLabelPosition=bottom;align=center;labelBackgroundColor=#ffffff;verticalAlign=top;strokeWidth=2;strokeColor=#0080F0;shadow=0;dashed=0;shape=mxgraph.ios7.icons.microphone;" vertex="1" parent="1">
          <mxGeometry x="230" y="300" width="12" height="30" as="geometry" />
        </mxCell>
        <mxCell id="SYBkerd49i4jiQnXX40c-4" value="" style="html=1;verticalLabelPosition=bottom;align=center;labelBackgroundColor=#ffffff;verticalAlign=top;strokeWidth=2;strokeColor=#0080F0;shadow=0;dashed=0;shape=mxgraph.ios7.icons.note;pointerEvents=1" vertex="1" parent="1">
          <mxGeometry x="221.15" y="150" width="29.7" height="29.7" as="geometry" />
        </mxCell>
        <mxCell id="SYBkerd49i4jiQnXX40c-16" style="edgeStyle=orthogonalEdgeStyle;rounded=0;orthogonalLoop=1;jettySize=auto;html=1;" edge="1" parent="1" source="SYBkerd49i4jiQnXX40c-5" target="SYBkerd49i4jiQnXX40c-1">
          <mxGeometry relative="1" as="geometry">
            <Array as="points">
              <mxPoint x="620" y="101" />
            </Array>
          </mxGeometry>
        </mxCell>
        <mxCell id="SYBkerd49i4jiQnXX40c-19" style="edgeStyle=orthogonalEdgeStyle;rounded=0;orthogonalLoop=1;jettySize=auto;html=1;" edge="1" parent="1" source="SYBkerd49i4jiQnXX40c-5" target="SYBkerd49i4jiQnXX40c-18">
          <mxGeometry relative="1" as="geometry" />
        </mxCell>
        <mxCell id="SYBkerd49i4jiQnXX40c-21" style="edgeStyle=orthogonalEdgeStyle;rounded=0;orthogonalLoop=1;jettySize=auto;html=1;entryX=0.5;entryY=0;entryDx=0;entryDy=0;" edge="1" parent="1" source="SYBkerd49i4jiQnXX40c-5" target="SYBkerd49i4jiQnXX40c-2">
          <mxGeometry relative="1" as="geometry">
            <Array as="points">
              <mxPoint x="620" y="400" />
            </Array>
          </mxGeometry>
        </mxCell>
        <mxCell id="SYBkerd49i4jiQnXX40c-5" value="" style="image;sketch=0;aspect=fixed;html=1;points=[];align=center;fontSize=12;image=img/lib/mscae/Functions.svg;" vertex="1" parent="1">
          <mxGeometry x="600" y="231" width="50" height="46" as="geometry" />
        </mxCell>
        <mxCell id="SYBkerd49i4jiQnXX40c-12" style="edgeStyle=orthogonalEdgeStyle;rounded=0;orthogonalLoop=1;jettySize=auto;html=1;exitX=0;exitY=0.25;exitDx=0;exitDy=0;entryX=0.971;entryY=0.539;entryDx=0;entryDy=0;entryPerimeter=0;" edge="1" parent="1" source="SYBkerd49i4jiQnXX40c-7" target="SYBkerd49i4jiQnXX40c-4">
          <mxGeometry relative="1" as="geometry" />
        </mxCell>
        <mxCell id="SYBkerd49i4jiQnXX40c-15" style="edgeStyle=orthogonalEdgeStyle;rounded=0;orthogonalLoop=1;jettySize=auto;html=1;entryX=-0.08;entryY=0.435;entryDx=0;entryDy=0;entryPerimeter=0;" edge="1" parent="1" source="SYBkerd49i4jiQnXX40c-7" target="SYBkerd49i4jiQnXX40c-5">
          <mxGeometry relative="1" as="geometry" />
        </mxCell>
        <mxCell id="SYBkerd49i4jiQnXX40c-7" value="" style="strokeColor=#dddddd;shadow=1;strokeWidth=1;rounded=1;absoluteArcSize=1;arcSize=2;" vertex="1" parent="1">
          <mxGeometry x="370" y="220" width="120" height="60" as="geometry" />
        </mxCell>
        <mxCell id="SYBkerd49i4jiQnXX40c-8" value="App&#xa;Engine" style="editableCssRules=.*;html=1;fontColor=#999999;shape=image;verticalLabelPosition=middle;labelBackgroundColor=#ffffff;verticalAlign=middle;labelPosition=right;align=left;spacingLeft=20;part=1;points=[];imageAspect=0;image=data:image/svg+xml,PHN2ZyB4bWxucz0iaHR0cDovL3d3dy53My5vcmcvMjAwMC9zdmciIHhtbG5zOnY9Imh0dHBzOi8vdmVjdGEuaW8vbmFubyIgd2lkdGg9IjIwIiBoZWlnaHQ9IjE2LjAyMDAwMDQ1Nzc2MzY3MiIgZmlsbC1ydWxlPSJldmVub2RkIiB2aWV3Qm94PSI4Ljk0MDY5NjcxNjMwODU5NGUtOCAwIDIwIDE2LjAyMDAwMDQ1Nzc2MzY3MiI+JiN4YTsJPHN0eWxlIHR5cGU9InRleHQvY3NzIj4mI3hhOwkuc3Qwe2ZpbGw6IzQyODVmNDt9JiN4YTsJLnN0MXtmaWxsOiNhZWNiZmE7fSYjeGE7CS5zdDJ7ZmlsbDojNjY5ZGY2O30mI3hhOwk8L3N0eWxlPiYjeGE7CTxwYXRoIGNsYXNzPSJzdDAiIGQ9Ik0xMi4zIDcuMjZsLTEuMjIgMS4yMkExLjcxIDEuNzEgMCAwIDEgMTAgMTEuNDlhMS43NCAxLjc0IDAgMCAxLTEuMzMtLjY0bC0xLjIyIDEuMjJhMy40MyAzLjQzIDAgMCAwIDUuOTg0LTEuMzgxQTMuNDMgMy40MyAwIDAgMCAxMi4zIDcuMjZ6Ii8+JiN4YTsJPHBhdGggY2xhc3M9InN0MSIgZD0iTTEwIDMuNTJhNi4yNSA2LjI1IDAgMCAwIDAgMTIuNSA2LjI1IDYuMjUgMCAwIDAgMC0xMi41bTAgMTAuNzRhNC40NSA0LjQ1IDAgMCAxLTMuMTU3LTcuNTk3QTQuNDUgNC40NSAwIDAgMSAxNC40NCA5LjgyIDQuNDQgNC40NCAwIDAgMSAxMCAxNC4yNiIvPiYjeGE7CTxwYXRoIGNsYXNzPSJzdDIiIGQ9Ik0xOS42MiA5LjE2bC0yLjU2LS44MWE3LjEgNy4xIDAgMCAxIC4xNyAxLjUzIDcuNjIgNy42MiAwIDAgMS0uMDggMS4wOGgyLjQ3YS40NC40NCAwIDAgMCAuMzgtLjQydi0xYS40NC40NCAwIDAgMC0uMzgtLjQyTTEwIDIuNzhhNy40OCA3LjQ4IDAgMCAxIDEuNS4xNUwxMC41OC4zOGMtLjA3LS4yMi0uMjEtLjM4LS40Mi0uMzhoLS4zOGEuNDUuNDUgMCAwIDAtLjQyLjM4bC0uOCAyLjU0QTcuNjQgNy42NCAwIDAgMSAxMCAyLjc4bS03LjIzIDcuMWE3LjEgNy4xIDAgMCAxIC4xNy0xLjUzbC0yLjU2LjgxYS40NC40NCAwIDAgMC0uMzguNDJ2MWEuNDQuNDQgMCAwIDAgLjM4LjQyaDIuNDdhNy42MiA3LjYyIDAgMCAxLS4wOC0xLjA4Ii8+JiN4YTsJPHBhdGggY2xhc3M9InN0MSIgZD0iTTEwIDcuMjZhMi41IDIuNSAwIDEgMCAwIDUgMi41IDIuNSAwIDEgMCAwLTV6bTAgMy43NWExLjI1IDEuMjUgMCAxIDEgMC0yLjUgMS4yNSAxLjI1IDAgMCAxIDEuMjUgMS4yNUExLjI1IDEuMjUgMCAwIDEgMTAgMTEuMDJ6Ii8+JiN4YTs8L3N2Zz4=;" vertex="1" parent="SYBkerd49i4jiQnXX40c-7">
          <mxGeometry width="30" height="24" relative="1" as="geometry">
            <mxPoint x="15" y="18" as="offset" />
          </mxGeometry>
        </mxCell>
        <mxCell id="SYBkerd49i4jiQnXX40c-18" value="GPT" style="sketch=0;outlineConnect=0;fontColor=#232F3E;gradientColor=none;fillColor=#3F8624;strokeColor=none;dashed=0;verticalLabelPosition=bottom;verticalAlign=top;align=center;html=1;fontSize=12;fontStyle=0;aspect=fixed;pointerEvents=1;shape=mxgraph.aws4.standard_ia;" vertex="1" parent="1">
          <mxGeometry x="740" y="210" width="45.87" height="47.7" as="geometry" />
        </mxCell>
      </root>
    </mxGraphModel>
  </diagram>
</mxfile>
